<svg t="1702093064739" class="icon" viewBox="0 0 1024 1024" version="1.1" xmlns="http://www.w3.org/2000/svg" p-id="1080" width="128" height="128"><path d="M941.2096 318.3616L536.6784 81.92a48.5376 48.5376 0 0 0-49.2032 0L87.3984 318.5152a49.7152 49.7152 0 0 0 0 85.3504L193.28 466.432a30.72 30.72 0 0 0-0.4608 5.12v297.472c0 56.32 94.4128 161.8944 321.7408 161.8944 124.1088 0 200.6528-29.7984 242.9952-54.8352 48.2816-28.5184 79.4624-67.072 79.4624-98.1504V464.8448l104.192-60.8768a49.7152 49.7152 0 0 0 0-85.6064z m-165.632 458.0352c-5.12 15.9744-68.608 92.928-261.12 92.928-187.7504 0-257.1264-78.2848-260.3008-100.8128v-266.24L487.4752 640a48.6912 48.6912 0 0 0 49.152 0l238.9504-139.264zM512 583.68L135.936 361.1648 512 138.9568l380.4672 222.208z m398.0288-211.968z" fill="#474747" p-id="1081"></path><path d="M930.4576 825.9584a30.72 30.72 0 0 1-30.72-30.72V486.0416a30.72 30.72 0 1 1 61.44 0v309.1968a30.72 30.72 0 0 1-30.72 30.72z" fill="#336BFF" p-id="1082"></path></svg>